<svg width="350" height="73" viewBox="0 0 350 73" fill="none" xmlns="http://www.w3.org/2000/svg">
<g clip-path="url(#clip0_2_110)">
<path d="M17.9861 66.7229C27.3116 66.7229 30.1457 60.7944 30.1457 55.1044V48.5243C28.2457 51.5918 23.8125 55.915 16.3078 55.915C6.19063 55.8991 0 48.7945 0 34.9032C0 22.5535 4.29069 11.7298 17.5586 11.7298C22.7992 11.7298 28.0399 14.0026 30.6681 17.2926C30.6681 16.196 31.0323 14.0821 31.3173 12.7629H37.2229C36.8588 14.6701 36.6371 18.2463 36.6371 20.5827V55.8196C36.6371 67.0726 28.4041 72.1904 17.9861 72.1904C12.6662 72.1904 6.91894 70.8076 2.24826 68.7573L3.70488 63.1944C7.56808 65.1017 13.1729 66.707 17.9861 66.707V66.7229ZM30.304 28.7681C30.304 26.7972 30.2248 24.6039 29.9398 22.9986C28.1191 20.4396 24.1134 17.3721 18.5719 17.3721C10.0538 17.3721 6.69728 24.1747 6.69728 34.776C6.69728 43.5495 9.83217 50.2726 17.5586 50.2726C24.7625 50.2726 28.6257 45.2342 29.9398 42.3098C30.1615 40.9906 30.304 38.8767 30.304 37.0488V28.784V28.7681Z" fill="#114F2B"/>
<path d="M71.7543 23.3164C70.3927 22.9191 68.7619 22.7125 66.8778 22.7125C64.9937 22.7125 63.4262 22.9032 62.2229 23.2847C61.0196 23.6661 59.943 24.1429 59.0247 24.6833C57.3464 25.6687 56.1115 26.7972 55.3515 28.0369V54.9295H47.9259V16.4979H55.0507L55.3515 21.8224C57.2039 19.486 59.9113 17.7377 63.4737 16.5774C64.7562 16.1324 66.2286 15.9099 67.8911 15.9099C69.5535 15.9099 70.836 16.037 71.7543 16.2754V23.3164V23.3164Z" fill="#114F2B"/>
<path d="M95.4243 55.5335C81.4281 55.5335 74.4142 48.6673 74.4142 34.9349C74.4142 29.0224 76.3616 24.286 80.2407 20.7416C83.7239 17.5152 87.7137 15.894 92.1944 15.894C97.0709 15.894 100.871 17.531 103.626 20.8052C106.175 23.8568 107.441 27.9416 107.441 33.0595V35.9681H82.1406C82.1406 42.9932 84.9905 47.2846 90.7061 48.8581C92.0678 49.2236 94.1577 49.4144 96.9918 49.4144C99.8258 49.4144 102.597 49.0329 105.32 48.2541V54.5481C102.597 55.1998 99.3034 55.5176 95.4085 55.5176L95.4243 55.5335ZM100.032 30.5005C100.032 28.1164 99.3825 26.0979 98.0684 24.4608C96.5326 22.5694 94.4269 21.6317 91.7194 21.6317C88.8695 21.6317 86.5579 22.5376 84.7847 24.3496C83.1539 26.0343 82.3306 28.0846 82.3306 30.5005H100.032Z" fill="#114F2B"/>
<path d="M133.471 55.5335C119.474 55.5335 112.46 48.6673 112.46 34.9349C112.46 29.0224 114.408 24.286 118.287 20.7416C121.77 17.5152 125.76 15.894 130.241 15.894C135.117 15.894 138.917 17.531 141.672 20.8052C144.221 23.8568 145.488 27.9416 145.488 33.0595V35.9681H120.187C120.187 42.9932 123.037 47.2846 128.752 48.8581C130.114 49.2236 132.204 49.4144 135.038 49.4144C137.872 49.4144 140.643 49.0329 143.366 48.2541V54.5481C140.643 55.1998 137.35 55.5176 133.455 55.5176L133.471 55.5335ZM138.078 30.5005C138.078 28.1164 137.429 26.0979 136.115 24.4608C134.579 22.5694 132.473 21.6317 129.766 21.6317C126.916 21.6317 124.604 22.5376 122.831 24.3496C121.2 26.0343 120.377 28.0846 120.377 30.5005H138.078V30.5005Z" fill="#114F2B"/>
<path d="M169.205 22.3151C165.516 22.3151 162.239 23.5708 159.373 26.082V54.9454H151.947V16.4979H158.819L159.341 20.6622C163.379 17.4834 167.543 15.894 171.849 15.894C176.409 15.894 179.734 17.2608 181.871 19.9946C184.104 22.8714 185.212 27.5125 185.212 33.9336V54.9454H177.787V33.9336C177.787 27.7668 176.124 24.0953 172.815 22.9032C171.754 22.5059 170.551 22.2992 169.221 22.2992L169.205 22.3151Z" fill="#114F2B"/>
<path d="M235.861 19.2635C233.233 17.9443 229.449 16.9271 226.029 16.9271C223.116 16.9271 218.604 18.1668 218.604 22.9986C218.604 26.5747 220.931 28.037 226.757 30.5959C233.17 33.4409 238.268 36.3654 238.268 43.47C238.268 53.1971 231.206 56.0421 224.715 56.0421C220.345 56.0421 214.155 54.9455 210.513 53.4832L212.049 47.7773C215.548 49.3826 220.567 50.4157 224.066 50.4157C228.072 50.4157 231.713 49.0329 231.713 43.7561C231.713 39.8144 228.436 37.8277 222.166 35.1257C216.118 32.4873 212.112 30.0873 212.112 23.2847C212.112 14.0026 220.044 11.7298 225.95 11.7298C229.877 11.7298 234.769 12.6834 237.46 13.8436L235.861 19.2476V19.2635Z" fill="#114F2B"/>
<path d="M252.787 68.4394L246.263 69.8381V16.4979H252.042L252.343 20.9006C253.832 18.9138 256.111 17.4357 259.167 16.4661C260.355 16.1006 261.558 15.9099 262.793 15.9099C264.028 15.9099 265.231 16.037 266.419 16.3072C267.606 16.5774 268.778 16.9906 269.949 17.5787C271.121 18.1668 272.229 18.9297 273.29 19.8833C274.351 20.837 275.301 22.029 276.108 23.4436C277.882 26.4952 278.784 30.278 278.784 34.8078C278.784 41.7058 276.409 46.9826 271.659 50.6382C267.448 53.8964 262.334 55.5176 256.301 55.5176H254.449C253.847 55.5176 253.309 55.5176 252.818 55.4858V68.4553L252.787 68.4394ZM252.787 49.4302C253.483 49.621 254.845 49.7322 256.871 49.7322C258.898 49.7322 260.798 49.4461 262.587 48.8739C264.376 48.3018 265.88 47.4276 267.115 46.2355C269.743 43.7084 271.042 39.8939 271.042 34.7919C271.042 29.9919 269.902 26.4634 267.622 24.1747C265.944 22.49 263.885 21.6476 261.463 21.6476C258.423 21.6476 255.89 22.776 253.895 25.033C253.372 25.6052 253.008 26.1138 252.787 26.5588V49.4302V49.4302Z" fill="#114F2B"/>
<path d="M284.658 37.2396C284.658 31.8197 286.574 27.433 290.405 24.0635C293.999 20.9165 298.433 19.343 303.721 19.343C309.009 19.343 313.252 20.9165 316.751 24.0635C320.456 27.4012 322.324 31.8038 322.324 37.2396C322.324 42.6753 320.456 47.0303 316.719 50.3362C313.189 53.4991 308.835 55.0885 303.689 55.0885C298.543 55.0885 294.047 53.4991 290.405 50.3362C286.574 47.0144 284.658 42.6435 284.658 37.2396V37.2396ZM292.384 37.2396C292.384 42.9455 294.411 46.8236 298.464 48.874C299.905 49.5892 301.615 49.9388 303.626 49.9388C305.636 49.9388 307.331 49.5733 308.708 48.8581C310.085 48.1428 311.225 47.1733 312.128 45.9971C313.79 43.7243 314.614 40.7998 314.614 37.2396C314.614 31.5813 312.619 27.7032 308.645 25.6052C307.251 24.8741 305.605 24.5085 303.673 24.5085C301.742 24.5085 300.063 24.8741 298.638 25.5893C297.213 26.3045 296.042 27.274 295.139 28.4502C293.303 30.7707 292.4 33.6952 292.4 37.2396H292.384Z" fill="#0C7139"/>
<path d="M341.941 49.0647C342.764 49.3667 343.999 49.5097 345.646 49.5097C347.293 49.5097 348.686 49.319 349.794 48.9057V54.866C349.272 54.9931 348.528 55.0567 347.53 55.0885L345.187 55.168H343.999C339.218 55.168 335.703 53.6104 333.423 50.4792C331.586 47.9521 330.684 44.5985 330.684 40.4184V22.2039H325.19V18.7072L330.684 16.5138L332.457 6.97745H338.094V16.5138H349.968V22.2198H338.094V40.4025C338.094 45.266 339.36 48.1587 341.909 49.0806L341.941 49.0647Z" fill="#114F2B"/>
<path d="M301.298 12.9854C301.441 8.36023 304.433 6.69137 306.507 5.80131C307.568 5.34038 310.94 3.62383 312.967 0.0158997C314.566 3.06754 312.967 8.02646 311.59 9.67943C309.816 11.8092 304.766 12.8105 302.945 17.7536C300.887 15.6238 301.298 13.0013 301.298 13.0013V12.9854Z" fill="#0C7139"/>
<path d="M299.953 12.9854C299.953 12.6039 300.032 12.2701 300.079 11.9364C299.984 11.8569 299.889 11.7615 299.794 11.6821C298.828 10.9192 293.762 8.56685 290.833 11.6821C293.049 11.5072 296.849 12.8423 298.448 15.1311C299.161 16.1483 299.968 16.4026 300.649 16.3867C299.715 14.6384 299.953 12.9695 299.953 12.9695V12.9854Z" fill="#0C7139"/>
</g>
<defs>
<clipPath id="clip0_2_110">
<rect width="350" height="72.2063" fill="white"/>
</clipPath>
</defs>
</svg>
